<svg width="256" height="230" viewBox="0 0 256 230" fill="none" xmlns="http://www.w3.org/2000/svg">
<g clip-path="url(#clip0_105_2)">
<path d="M22.4406 0.728151C9.69062 4.0219 0.5 21.8719 0.5 43.2813C0.5 52.1 2.89062 63.0438 6.39687 69.8969C7.19375 71.5438 9.10625 74.4656 10.5937 76.4313C12.5062 78.9281 13.1969 80.2563 13.0375 81.1063C12.8781 81.7969 12.6125 88.7031 12.4531 96.5125L12.0812 110.75H16.3312H20.5281L20.8469 101.878C21.0594 97.0438 21.2187 91.2 21.2187 88.9688V84.8781L26 84.9313L30.7812 84.9844V87.9063C30.7812 89.5 31.6312 118.453 32.6937 152.188C34.075 197.556 34.3937 214.078 33.9687 215.513C33.2781 217.903 30.3562 220.559 27.8594 221.038C23.5562 221.834 19.1469 219.338 18.0312 215.513C17.6062 214.078 17.8187 202.019 18.775 169.878C19.5187 145.866 20.1562 124.616 20.1562 122.703V119.25H15.9062H11.6562V122.438C11.6562 124.244 11.0187 145.228 10.275 169.081C9.53125 192.934 9.10625 213.653 9.26562 215.088C9.95625 220.506 13.0375 224.916 18.1375 227.678C21.2187 229.325 21.8562 229.484 26 229.484C30.1437 229.484 30.7812 229.325 33.8625 227.678C39.5469 224.597 42.4156 219.975 42.7875 213.334C42.8937 211.103 42.0969 180.344 41.0344 144.909L39.0156 80.575L41.3 78.0781C45.55 73.35 48.95 66.3906 50.9687 58.1031C52.4562 52.2063 52.9344 40.2531 52.0312 33.6125C49.4812 14.5406 39.5469 1.0469 27.7 0.462526C25.7344 0.356276 23.3969 0.515651 22.4406 0.728151ZM30.6219 9.86565C35.5094 12.2563 40.1312 19.375 42.575 28.4063C43.6375 32.3375 43.7437 34.1969 43.7437 42.75C43.7437 51.3031 43.6375 53.1625 42.575 57.0938C39.4406 68.675 32.8531 76.75 26.5312 76.75C20.2094 76.75 13.8344 68.8344 10.7 57.1469C9.47812 52.5781 9.37187 51.0375 9.37187 42.75C9.37187 34.4625 9.47812 32.9219 10.7 28.3531C13.1437 19.2688 17.6062 12.2563 22.3875 9.86565C25.2562 8.43127 27.7 8.43127 30.6219 9.86565Z" fill="#41BBDD"/>
<path d="M204.606 37.2781L204.766 74.3594L206.041 76.8562C206.731 78.2375 208.059 80.0437 208.963 80.9469C210.875 82.7531 214.434 84.7187 215.763 84.7187C216.984 84.7187 217.091 79.1406 214.806 151.444C213.797 185.019 213.106 213.653 213.266 215.087C213.956 220.506 217.038 224.916 222.138 227.678C225.219 229.325 225.856 229.484 230 229.484C234.144 229.484 234.781 229.325 237.863 227.678C241.581 225.659 243.175 224.012 245.3 219.975L246.734 217.266L246.628 203.453C246.522 195.856 246.363 188.153 246.15 186.294L245.831 183H241.634H237.384L237.65 187.091C237.809 189.375 238.075 196.387 238.288 202.709C238.606 215.512 238.394 216.681 235.366 219.284C230.956 222.95 223.572 220.878 222.031 215.512C221.606 214.078 221.925 197.556 223.306 152.187C224.369 118.453 225.219 89.5531 225.219 88.0125V85.25H230H234.781V87.7469C234.781 92.4219 236.906 163.556 237.225 169.028L237.544 174.5H241.741H245.991L245.672 167.169C245.247 157.978 243.281 91.8906 243.281 87.8C243.281 85.1969 243.441 84.7187 244.238 84.7187C245.513 84.7187 249.072 82.7531 250.878 81.0531C251.728 80.3094 253.056 78.45 253.8 77.0156L255.234 74.3594L255.394 37.2781L255.553 0.249977H251.25H247V21.5V42.75H240.625H234.25V21.5V0.249977H230H225.75V21.5V42.75H219.375H213V21.5V0.249977H208.75H204.447L204.606 37.2781ZM246.894 62.1406L246.734 73.0312L244.981 74.7312L243.281 76.4844H230H216.719L215.019 74.7312L213.266 73.0312L213.106 62.1406L212.947 51.25H230H247.053L246.894 62.1406Z" fill="#41BBDD"/>
<path d="M119.5 9.06878C118.756 9.17503 116.047 9.5469 113.391 9.86565C93.7344 12.3094 73.1219 21.7657 57.6625 35.3657C57.3969 35.5782 58.4594 37.225 60 38.9781L62.7625 42.1656L66.0563 39.4563C70.7313 35.525 78.0094 30.85 84.4375 27.6094C115.463 12.0438 152.703 14.275 181.922 33.5594C184.578 35.3125 188.191 37.9688 189.944 39.4563L193.238 42.1656L196.053 38.925L198.869 35.6844L197.275 34.4094C179.531 19.7469 160.459 11.6188 138.519 9.28128C133.684 8.80315 122.475 8.64378 119.5 9.06878Z" fill="#435EBE"/>
<path d="M120.297 34.5687C98.8875 37.65 84.9688 44.2906 71.1563 58.1562C58.8844 70.375 51.6594 84.0281 48.525 100.922C47.1438 108.094 47.1438 122.278 48.525 129.078C51.9781 146.609 59.6813 161.059 72.0063 172.959C83.8531 184.381 97.2938 191.234 113.922 194.528C120.722 195.856 134.906 195.803 142.078 194.475C165.188 190.172 184.844 176.678 196.956 156.862C204.022 145.334 207.9 132.425 208.538 118.453C208.856 112.45 208.219 102.569 207.475 101.878C207.369 101.719 205.456 101.931 203.225 102.25L199.188 102.941L199.613 105.119C200.197 108.572 200.038 122.862 199.294 126.953C198.922 128.972 198.231 131.947 197.806 133.487L197.009 136.303L194.725 134.444C191.909 132.106 186.066 129.397 179.053 127.166L173.741 125.519L176.769 121.906C180.753 117.125 183.091 113.141 184.897 108.2C191.538 89.3406 184.684 69.0469 168.003 58.1562C160.566 53.2687 154.244 51.5156 144.469 51.5687C138.147 51.6219 136.766 51.7812 132.781 53.1094C130.284 53.9062 127.628 54.8625 126.884 55.2875C125.663 55.8719 125.344 55.8719 124.866 55.2875C124.547 54.9156 122.794 53.9062 120.934 53.0562C118.119 51.7281 116.95 51.5156 113.125 51.5156C109.3 51.5156 108.131 51.7281 105.422 53.0031C101.597 54.8094 98.0906 58.05 96.3906 61.3969L95.1156 63.8406L91.2375 64.1062C83.8 64.5844 77.5844 68.7812 74.5563 75.3687C72.8031 79.2469 72.325 84.4 73.4406 88.0125L74.1844 90.4562L71.6875 91.8375C66.8 94.4937 64.5688 98.1062 63.4 105.172C63.2406 106.341 62.1781 109.209 61.1156 111.547C58.5125 117.337 58.4594 121.109 60.9563 126.369C61.9125 128.387 63.1344 132.159 63.7188 134.709C64.25 137.259 65.0469 140.022 65.525 140.872C66.6406 142.997 69.35 145.387 73.0156 147.406C74.7688 148.416 77.6375 150.487 79.3906 152.081C84.4906 156.809 87.3594 157.606 95.6469 156.703C97.6125 156.491 99.95 156.491 100.853 156.703C102.447 157.022 102.447 157.075 101.703 158.562C99.4719 162.919 100.322 167.7 104.041 171.366C108.556 175.934 113.869 176.306 122.741 172.641C131.772 168.922 136.447 167.912 145.266 167.966C151.481 167.966 153.553 168.231 157.856 169.347C163.009 170.728 169.438 173.278 169.438 173.916C169.438 174.5 161.628 179.069 157.75 180.769C152.809 183 146.7 184.966 141.388 186.028C135.066 187.303 121.041 187.303 114.613 186.028C109.141 184.912 100.481 181.991 95.9125 179.706C75.7781 169.559 61.4344 150.7 56.9719 128.387C55.6969 122.012 55.6969 107.987 56.9719 101.612C62.7625 72.5531 84.3844 50.6656 113.656 44.1844C121.041 42.5906 135.119 42.5906 142.716 44.2375C156.741 47.2656 168.853 53.9062 179.053 64.0531C186.703 71.65 193.45 82.4875 196.372 91.7844C197.434 95.1844 196.956 95.0781 202.8 93.4312C206.041 92.475 206.041 93.2187 202.853 84.9844C198.869 74.6781 192.441 65.2219 183.622 56.7219C172.466 45.9906 159.344 39.0844 144.044 35.8437C139.05 34.7812 124.281 33.9844 120.297 34.5687ZM118.119 61.0781C126.3 64.9562 124.972 77.9719 116.153 80.4156C107.972 82.7531 100.8 75.5812 103.031 67.2937C103.722 64.5844 107.016 61.0781 109.513 60.3344C111.956 59.5906 115.675 59.9094 118.119 61.0781ZM152.172 60.5469C163.541 62.8844 173.9 72.3937 177.459 83.6562C179 88.4906 179.319 95.6625 178.256 100.656C176.556 108.731 171.031 117.125 164.55 121.481L161.734 123.394L153.5 123.712C148.719 123.872 143.3 124.403 140.591 124.987C136.659 125.784 135.969 125.837 136.234 125.2C137.138 122.862 137.669 119.516 137.403 117.709C137.297 116.594 136.288 113.725 135.225 111.387C134.163 109.05 133.313 107.031 133.313 106.872C133.313 106.712 135.013 107.456 137.084 108.519C140.484 110.272 141.334 110.484 144.947 110.484C151.906 110.484 157.378 106.978 160.353 100.709C161.469 98.2656 161.734 96.9906 161.734 93.4844C161.734 89.6062 161.522 88.9156 159.822 85.7812C156.475 79.6719 150.419 76.325 143.725 76.8562C135.916 77.4937 129.913 82.9656 128.266 90.8812L127.734 93.6437L124.281 91.5719C122.369 90.4562 120.456 89.2875 120.031 89.075C119.394 88.7031 119.819 88.2781 121.891 87.2156C129.594 83.2844 134.003 73.35 131.506 65.4344L130.709 62.8312L132.675 62.0344C137.988 59.8031 145.797 59.2187 152.172 60.5469ZM94.5844 74.7312C95.5406 78.2906 97.0813 81.0531 99.7375 83.8156L102.181 86.3125L101.172 88.225C97.5063 95.025 87.3594 95.45 83.1094 89.0219C80.3469 84.825 80.9313 79.1937 84.4906 75.6344C86.6156 73.5094 88.7406 72.6062 91.9813 72.5531C93.8938 72.5 94 72.6062 94.5844 74.7312ZM148.347 85.9937C153.819 88.2781 155.147 95.3969 150.897 99.6469C147.497 103.1 142.769 103.1 139.209 99.7C132.409 93.2719 139.688 82.3812 148.347 85.9937ZM112.222 93.5375C113.709 94.8656 116.791 97.0437 119.075 98.3719C123.484 100.922 123.591 101.081 124.813 107.244C125.184 108.997 126.247 112.184 127.256 114.362C128.266 116.541 129.063 118.719 129.063 119.197C129.063 119.675 128.106 122.225 126.991 124.775L124.919 129.503L121.041 131.522C114.825 134.816 111.797 138.534 111.159 143.634C110.628 148.097 110.416 148.203 98.4094 148.256L88.05 148.309L84.7563 145.441C83.0031 143.794 79.6563 141.456 77.425 140.128C73.0156 137.578 72.9094 137.419 71.6875 131.256C71.3156 129.503 70.2531 126.316 69.2438 124.137C68.2344 121.959 67.4375 119.781 67.4375 119.25C67.4375 118.719 68.2344 116.541 69.2438 114.362C70.2531 112.184 71.3156 108.997 71.6875 107.244C72.8563 101.347 73.1219 100.816 76.2563 99.0094C78.9125 97.5219 79.2844 97.4156 80.0813 98.1594C80.6125 98.6375 82.4188 99.7 84.1719 100.497C86.8813 101.772 88.05 101.984 91.875 101.984C95.7 101.984 96.8688 101.772 99.6844 100.444C103.138 98.9031 107.866 94.4937 108.556 92.2625C108.769 91.625 109.088 91.0937 109.247 91.0937C109.406 91.0937 110.734 92.2094 112.222 93.5375ZM163.859 132.584C170.5 133.381 177.3 135.241 183.197 137.737C188.616 140.128 190.369 141.403 191.166 143.794C191.644 145.122 191.538 145.547 190.422 146.662C188.669 148.416 185.959 148.309 181.816 146.344C165.878 138.853 147.231 138.641 130.391 145.866C125.078 148.15 122.156 148.416 120.297 146.875C118.172 145.122 120.403 141.191 124.706 139.172C137.297 133.169 150.472 130.937 163.859 132.584ZM152.438 151.125C163.753 152.506 176.716 156.969 179.478 160.422C181.231 162.706 181.338 163.822 180.009 165.256C178.256 167.116 175.547 166.956 170.341 164.619C164.55 162.069 157.644 160.316 150.738 159.519C140.909 158.456 129.381 160.369 119.659 164.619C114.613 166.85 111.584 167.116 109.884 165.416C107.706 163.237 109.778 159.944 114.931 157.447C117.8 156.066 118.384 156.012 122.369 156.278C126.247 156.544 127.044 156.437 130.125 155.109C141.175 150.487 143.513 150.062 152.438 151.125Z" fill="#435EBE"/>
<path d="M102.553 110.697C101.331 112.45 100.375 113.991 100.375 114.15C100.375 114.469 111.213 121.8 112.275 122.225C112.753 122.437 113.816 121.375 115.197 119.303C116.419 117.55 117.375 116.009 117.375 115.85C117.375 115.531 106.538 108.2 105.475 107.775C104.997 107.562 103.934 108.625 102.553 110.697Z" fill="#435EBE"/>
<path d="M79.4438 115.425C78.3813 118.559 77.5312 121.375 77.5312 121.747C77.5312 122.278 83.3219 124.562 84.7563 124.562C85.3406 124.562 89.2188 114.097 89.2188 112.503C89.2188 111.972 83.4281 109.687 81.9938 109.687C81.6219 109.687 80.5063 112.237 79.4438 115.425Z" fill="#435EBE"/>
<path d="M98.5687 130.194C95.7 131.15 93.2031 132.106 92.9906 132.266C92.5656 132.744 95.1687 139.969 95.8062 139.969C97.2937 139.969 107.812 136.091 107.812 135.559C107.812 135.187 107.281 133.434 106.644 131.575C105.9 129.397 105.209 128.281 104.678 128.334C104.2 128.334 101.437 129.184 98.5687 130.194Z" fill="#435EBE"/>
<path d="M51.2875 182.628L48.2062 185.391L53.9969 190.969C60.2125 197.025 65.525 201.222 72.1125 205.259C102.553 224.172 141.122 226.35 173.316 210.997C184.791 205.525 193.45 199.469 202.481 190.544C208.219 184.859 208.112 185.444 203.916 181.884L201.366 179.759L197.222 183.903C181.284 199.841 160.619 209.722 137.987 212.166C109.194 215.353 79.3906 204.622 58.5656 183.691C56.4406 181.566 54.6344 179.812 54.5812 179.812C54.475 179.812 53.0406 181.087 51.2875 182.628Z" fill="#435EBE"/>
</g>
<defs>
<clipPath id="clip0_105_2">
<rect width="256" height="230" fill="white"/>
</clipPath>
</defs>
</svg>
